<?xml version="1.0" standalone="no"?>
<!DOCTYPE svg PUBLIC "-//W3C//DTD SVG 20010904//EN"
 "http://www.w3.org/TR/2001/REC-SVG-20010904/DTD/svg10.dtd">
<svg version="1.0" xmlns="http://www.w3.org/2000/svg"
 width="254.000000pt" height="198.000000pt" viewBox="0 0 254.000000 198.000000"
 preserveAspectRatio="xMidYMid meet">

<g transform="translate(0.000000,198.000000) scale(0.100000,-0.100000)"
fill="#F34848" stroke="none">
<path d="M1771 1944 c-61 -43 -102 -49 -241 -30 -156 21 -185 20 -236 -3 -82
-37 -115 -110 -123 -271 l-6 -105 -77 -3 -77 -3 -46 46 c-146 147 -395 146
-545 -1 -25 -24 -50 -44 -56 -44 -14 0 -75 -66 -111 -120 -244 -364 -332
-1087 -160 -1311 48 -62 79 -82 140 -87 69 -5 115 9 197 63 63 42 299 272 334
328 l18 27 488 0 488 0 18 -27 c32 -50 258 -274 321 -319 79 -57 139 -78 209
-72 62 5 93 24 141 87 192 250 55 1098 -225 1394 -20 20 -41 37 -46 37 -6 0
-31 20 -56 44 -149 147 -399 147 -545 2 l-46 -46 -130 0 -131 0 4 103 c4 112
21 159 70 186 23 13 42 13 162 -3 86 -12 155 -16 188 -12 85 12 188 78 188
122 0 20 -29 44 -53 43 -12 0 -37 -12 -56 -25z m89 -599 c64 -33 75 -117 24
-168 -73 -74 -197 -11 -180 91 12 76 87 113 156 77z m-1083 -59 c32 -35 33
-38 33 -126 l0 -90 89 0 c82 0 92 -2 120 -26 17 -14 36 -43 42 -64 10 -32 9
-44 -7 -77 -27 -54 -70 -73 -166 -73 l-78 0 0 -80 c0 -93 -15 -132 -60 -155
-65 -34 -138 -7 -166 61 -8 19 -14 65 -14 104 l0 70 -70 0 c-39 0 -85 6 -104
14 -78 33 -101 122 -47 186 29 35 29 35 125 38 l96 4 0 74 c0 90 17 136 62
164 49 31 103 22 145 -24z m816 -167 c36 -19 57 -52 57 -92 0 -70 -55 -116
-123 -103 -38 7 -60 27 -77 70 -30 80 66 164 143 125z m280 -259 c62 -49 53
-143 -17 -177 -74 -35 -151 16 -151 98 0 81 103 130 168 79z"/>
<path d="M660 1225 l-34 -35 69 0 69 0 -34 35 c-19 19 -34 35 -35 35 -1 0 -16
-16 -35 -35z"/>
<path d="M415 980 l-28 -29 32 -36 31 -36 0 66 c0 36 -1 65 -3 65 -2 0 -16
-13 -32 -30z"/>
<path d="M940 943 l0 -67 35 34 35 34 -32 33 c-18 18 -33 33 -35 33 -2 0 -3
-30 -3 -67z"/>
<path d="M662 673 l38 -37 30 29 c16 16 30 32 30 37 0 4 -30 8 -67 8 l-68 0
37 -37z"/>
</g>
</svg>
